<svg width="177" height="34" viewBox="0 0 177 34" fill="none" xmlns="http://www.w3.org/2000/svg">
<g filter="url(#filter0_i_14_14)">
<circle cx="18.9672" cy="17" r="16" fill="#010048"/>
</g>
<circle cx="18.9672" cy="17" r="15.5" stroke="white"/>
<path d="M17.1487 5.63159L9.71423 26.4017H12.959L20.0725 5.63159H17.1487Z" fill="#F0F1F7"/>
<path d="M20.5183 23.0499L18.9706 18.4146L16.1198 26.4219H19.3389L20.5183 23.0499Z" fill="#F0F1F7"/>
<path d="M28.2201 26.4017H24.904L20.5401 13.9968L22.0872 9.62516L28.2201 26.4017Z" fill="#F0F1F7"/>
<path d="M43.4364 27L51.6835 5.52539H54.745L63.5341 27H60.2968L57.7919 20.4961H48.8124L46.454 27H43.4364ZM49.6327 18.1816H56.913L54.6718 12.2344C53.9882 10.4277 53.4803 8.94336 53.1483 7.78125C52.8749 9.1582 52.4891 10.5254 51.9911 11.8828L49.6327 18.1816ZM64.413 22.3564L67.0204 21.9463C67.1669 22.9912 67.5721 23.792 68.2362 24.3486C68.91 24.9053 69.8475 25.1836 71.0487 25.1836C72.2596 25.1836 73.1581 24.9395 73.744 24.4512C74.33 23.9531 74.6229 23.3721 74.6229 22.708C74.6229 22.1123 74.3641 21.6436 73.8466 21.3018C73.4852 21.0674 72.5868 20.7695 71.1512 20.4082C69.2177 19.9199 67.8749 19.5 67.1229 19.1484C66.3807 18.7871 65.8143 18.2939 65.4237 17.6689C65.0428 17.0342 64.8524 16.3359 64.8524 15.5742C64.8524 14.8809 65.0087 14.2412 65.3212 13.6553C65.6434 13.0596 66.078 12.5664 66.6249 12.1758C67.035 11.873 67.5917 11.6191 68.2948 11.4141C69.0077 11.1992 69.7694 11.0918 70.58 11.0918C71.8007 11.0918 72.87 11.2676 73.788 11.6191C74.7157 11.9707 75.3993 12.4492 75.8387 13.0547C76.2782 13.6504 76.5809 14.4512 76.7469 15.457L74.1688 15.8086C74.0516 15.0078 73.7098 14.3828 73.1434 13.9336C72.5868 13.4844 71.7958 13.2598 70.7704 13.2598C69.5594 13.2598 68.6952 13.46 68.1776 13.8604C67.66 14.2607 67.4012 14.7295 67.4012 15.2666C67.4012 15.6084 67.5087 15.916 67.7235 16.1895C67.9384 16.4727 68.2753 16.707 68.7343 16.8926C68.9979 16.9902 69.7743 17.2148 71.0634 17.5664C72.9286 18.0645 74.2274 18.4746 74.9598 18.7969C75.702 19.1094 76.2831 19.5684 76.703 20.1738C77.1229 20.7793 77.3329 21.5312 77.3329 22.4297C77.3329 23.3086 77.0741 24.1387 76.5565 24.9199C76.0487 25.6914 75.3114 26.292 74.3446 26.7217C73.3778 27.1416 72.2841 27.3516 71.0634 27.3516C69.0419 27.3516 67.4989 26.9316 66.4344 26.0918C65.3798 25.252 64.7059 24.0068 64.413 22.3564ZM79.413 22.3564L82.0204 21.9463C82.1669 22.9912 82.5721 23.792 83.2362 24.3486C83.91 24.9053 84.8475 25.1836 86.0487 25.1836C87.2596 25.1836 88.1581 24.9395 88.744 24.4512C89.33 23.9531 89.6229 23.3721 89.6229 22.708C89.6229 22.1123 89.3641 21.6436 88.8466 21.3018C88.4852 21.0674 87.5868 20.7695 86.1512 20.4082C84.2177 19.9199 82.8749 19.5 82.1229 19.1484C81.3807 18.7871 80.8143 18.2939 80.4237 17.6689C80.0428 17.0342 79.8524 16.3359 79.8524 15.5742C79.8524 14.8809 80.0087 14.2412 80.3212 13.6553C80.6434 13.0596 81.078 12.5664 81.6249 12.1758C82.035 11.873 82.5917 11.6191 83.2948 11.4141C84.0077 11.1992 84.7694 11.0918 85.58 11.0918C86.8007 11.0918 87.87 11.2676 88.788 11.6191C89.7157 11.9707 90.3993 12.4492 90.8387 13.0547C91.2782 13.6504 91.5809 14.4512 91.7469 15.457L89.1688 15.8086C89.0516 15.0078 88.7098 14.3828 88.1434 13.9336C87.5868 13.4844 86.7958 13.2598 85.7704 13.2598C84.5594 13.2598 83.6952 13.46 83.1776 13.8604C82.66 14.2607 82.4012 14.7295 82.4012 15.2666C82.4012 15.6084 82.5087 15.916 82.7235 16.1895C82.9384 16.4727 83.2753 16.707 83.7343 16.8926C83.9979 16.9902 84.7743 17.2148 86.0634 17.5664C87.9286 18.0645 89.2274 18.4746 89.9598 18.7969C90.702 19.1094 91.2831 19.5684 91.703 20.1738C92.1229 20.7793 92.3329 21.5312 92.3329 22.4297C92.3329 23.3086 92.0741 24.1387 91.5565 24.9199C91.0487 25.6914 90.3114 26.292 89.3446 26.7217C88.3778 27.1416 87.2841 27.3516 86.0634 27.3516C84.0419 27.3516 82.4989 26.9316 81.4344 26.0918C80.3798 25.252 79.7059 24.0068 79.413 22.3564ZM106.117 21.9902L108.842 22.3271C108.412 23.9189 107.616 25.1543 106.454 26.0332C105.292 26.9121 103.807 27.3516 102.001 27.3516C99.7255 27.3516 97.9188 26.6533 96.5809 25.2568C95.2528 23.8506 94.5887 21.8828 94.5887 19.3535C94.5887 16.7363 95.2626 14.7051 96.6102 13.2598C97.9579 11.8145 99.7059 11.0918 101.854 11.0918C103.934 11.0918 105.634 11.7998 106.952 13.2158C108.27 14.6318 108.93 16.624 108.93 19.1924C108.93 19.3486 108.925 19.583 108.915 19.8955H97.3134C97.411 21.6045 97.8944 22.9131 98.7635 23.8213C99.6327 24.7295 100.717 25.1836 102.016 25.1836C102.982 25.1836 103.807 24.9297 104.491 24.4219C105.175 23.9141 105.717 23.1035 106.117 21.9902ZM97.4598 17.7275H106.146C106.029 16.4189 105.697 15.4375 105.15 14.7832C104.31 13.7676 103.222 13.2598 101.884 13.2598C100.673 13.2598 99.6522 13.665 98.8221 14.4756C98.0018 15.2861 97.5477 16.3701 97.4598 17.7275ZM117.924 24.6416L118.305 26.9707C117.562 27.127 116.898 27.2051 116.312 27.2051C115.355 27.2051 114.613 27.0537 114.086 26.751C113.558 26.4482 113.187 26.0527 112.973 25.5645C112.758 25.0664 112.65 24.0264 112.65 22.4443V13.4941H110.717V11.4434H112.65V7.59082L115.272 6.00879V11.4434H117.924V13.4941H115.272V22.5908C115.272 23.3428 115.316 23.8262 115.404 24.041C115.502 24.2559 115.653 24.4268 115.858 24.5537C116.073 24.6807 116.376 24.7441 116.766 24.7441C117.059 24.7441 117.445 24.71 117.924 24.6416Z" fill="white"/>
<defs>
<filter id="filter0_i_14_14" x="2.96716" y="1" width="32" height="36" filterUnits="userSpaceOnUse" color-interpolation-filters="sRGB">
<feFlood flood-opacity="0" result="BackgroundImageFix"/>
<feBlend mode="normal" in="SourceGraphic" in2="BackgroundImageFix" result="shape"/>
<feColorMatrix in="SourceAlpha" type="matrix" values="0 0 0 0 0 0 0 0 0 0 0 0 0 0 0 0 0 0 127 0" result="hardAlpha"/>
<feOffset dy="4"/>
<feGaussianBlur stdDeviation="2"/>
<feComposite in2="hardAlpha" operator="arithmetic" k2="-1" k3="1"/>
<feColorMatrix type="matrix" values="0 0 0 0 0 0 0 0 0 0 0 0 0 0 0 0 0 0 0.25 0"/>
<feBlend mode="normal" in2="shape" result="effect1_innerShadow_14_14"/>
</filter>
</defs>
</svg>
